HIERARCHY
ROOT mixamorig:Hips
{
	OFFSET -0.000008 104.274872 1.554316
	CHANNELS 6 Xposition Yposition Zposition Xrotation Yrotation Zrotation
	JOINT mixamorig:Spine
	{
		OFFSET -0.000005 10.181595 0.131519
		CHANNELS 6 Xposition Yposition Zposition Xrotation Yrotation Zrotation
		JOINT mixamorig:Spine1
		{
			OFFSET -0.000000 9.893959 -1.470707
			CHANNELS 6 Xposition Yposition Zposition Xrotation Yrotation Zrotation
			JOINT mixamorig:Spine2
			{
				OFFSET -0.000000 9.220757 -1.370641
				CHANNELS 6 Xposition Yposition Zposition Xrotation Yrotation Zrotation
				JOINT mixamorig:Neck
				{
					OFFSET 0.000001 16.740417 -2.049036
					CHANNELS 6 Xposition Yposition Zposition Xrotation Yrotation Zrotation
					JOINT mixamorig:Head
					{
						OFFSET 0.000000 9.617874 1.685006
						CHANNELS 6 Xposition Yposition Zposition Xrotation Yrotation Zrotation
						JOINT mixamorig:HeadTop_End
						{
							OFFSET 0.000002 22.037354 7.501101
							CHANNELS 6 Xposition Yposition Zposition Xrotation Yrotation Zrotation
							End Site
							{
								OFFSET 0.000168 2310.654297 -282.823242
							}
						}
					}
				}
				JOINT mixamorig:RightShoulder
				{
					OFFSET -4.569970 11.014908 -2.160885
					CHANNELS 6 Xposition Yposition Zposition Xrotation Yrotation Zrotation
					JOINT mixamorig:RightArm
					{
						OFFSET -10.592851 -0.524811 -2.232101
						CHANNELS 6 Xposition Yposition Zposition Xrotation Yrotation Zrotation
						JOINT mixamorig:RightForeArm
						{
							OFFSET -27.841511 0.000031 -0.000004
							CHANNELS 6 Xposition Yposition Zposition Xrotation Yrotation Zrotation
							JOINT mixamorig:RightHand
							{
								OFFSET -28.328831 -0.000015 0.000015
								CHANNELS 6 Xposition Yposition Zposition Xrotation Yrotation Zrotation
								JOINT mixamorig:RightHandThumb1
								{
									OFFSET -2.464806 -1.573990 2.681852
									CHANNELS 6 Xposition Yposition Zposition Xrotation Yrotation Zrotation
									JOINT mixamorig:RightHandThumb2
									{
										OFFSET -3.215179 -1.872803 1.924282
										CHANNELS 6 Xposition Yposition Zposition Xrotation Yrotation Zrotation
										JOINT mixamorig:RightHandThumb3
										{
											OFFSET -2.654831 -1.527969 1.512609
											CHANNELS 6 Xposition Yposition Zposition Xrotation Yrotation Zrotation
											JOINT mixamorig:RightHandThumb4
											{
												OFFSET -2.018814 -1.152008 1.108052
												CHANNELS 6 Xposition Yposition Zposition Xrotation Yrotation Zrotation
												End Site
												{
													OFFSET -188.809540 -114.533607 132.431396
												}
											}
										}
									}
								}
								JOINT mixamorig:RightHandIndex1
								{
									OFFSET -9.108284 -0.517868 2.259835
									CHANNELS 6 Xposition Yposition Zposition Xrotation Yrotation Zrotation
									JOINT mixamorig:RightHandIndex2
									{
										OFFSET -3.699989 0.000000 0.001215
										CHANNELS 6 Xposition Yposition Zposition Xrotation Yrotation Zrotation
										JOINT mixamorig:RightHandIndex3
										{
											OFFSET -2.850006 0.000031 -0.000522
											CHANNELS 6 Xposition Yposition Zposition Xrotation Yrotation Zrotation
											JOINT mixamorig:RightHandIndex4
											{
												OFFSET -2.772186 -0.000015 -0.000020
												CHANNELS 6 Xposition Yposition Zposition Xrotation Yrotation Zrotation
												End Site
												{
													OFFSET -277.218445 0.000000 -0.050231
												}
											}
										}
									}
								}
								JOINT mixamorig:RightHandMiddle1
								{
									OFFSET -9.532516 -0.000031 -0.000023
									CHANNELS 6 Xposition Yposition Zposition Xrotation Yrotation Zrotation
									JOINT mixamorig:RightHandMiddle2
									{
										OFFSET -3.700005 -0.000015 0.003713
										CHANNELS 6 Xposition Yposition Zposition Xrotation Yrotation Zrotation
										JOINT mixamorig:RightHandMiddle3
										{
											OFFSET -2.949974 0.000015 -0.002054
											CHANNELS 6 Xposition Yposition Zposition Xrotation Yrotation Zrotation
											JOINT mixamorig:RightHandMiddle4
											{
												OFFSET -2.946640 0.000000 -0.000156
												CHANNELS 6 Xposition Yposition Zposition Xrotation Yrotation Zrotation
												End Site
												{
													OFFSET -294.664337 0.000000 -0.113670
												}
											}
										}
									}
								}
								JOINT mixamorig:RightHandRing1
								{
									OFFSET -9.103600 -0.043076 -1.865134
									CHANNELS 6 Xposition Yposition Zposition Xrotation Yrotation Zrotation
									JOINT mixamorig:RightHandRing2
									{
										OFFSET -3.379288 0.000000 -0.001055
										CHANNELS 6 Xposition Yposition Zposition Xrotation Yrotation Zrotation
										JOINT mixamorig:RightHandRing3
										{
											OFFSET -2.889687 -0.000015 0.000379
											CHANNELS 6 Xposition Yposition Zposition Xrotation Yrotation Zrotation
											JOINT mixamorig:RightHandRing4
											{
												OFFSET -2.638809 -0.000015 0.000941
												CHANNELS 6 Xposition Yposition Zposition Xrotation Yrotation Zrotation
												End Site
												{
													OFFSET -263.880371 0.000000 0.516020
												}
											}
										}
									}
								}
								JOINT mixamorig:RightHandPinky1
								{
									OFFSET -8.076683 -0.486710 -3.806280
									CHANNELS 6 Xposition Yposition Zposition Xrotation Yrotation Zrotation
									JOINT mixamorig:RightHandPinky2
									{
										OFFSET -3.600014 -0.000015 -0.003747
										CHANNELS 6 Xposition Yposition Zposition Xrotation Yrotation Zrotation
										JOINT mixamorig:RightHandPinky3
										{
											OFFSET -2.099983 0.000000 -0.005739
											CHANNELS 6 Xposition Yposition Zposition Xrotation Yrotation Zrotation
											JOINT mixamorig:RightHandPinky4
											{
												OFFSET -2.115768 -0.000031 -0.003680
												CHANNELS 6 Xposition Yposition Zposition Xrotation Yrotation Zrotation
												End Site
												{
													OFFSET -211.577087 0.000000 -0.350686
												}
											}
										}
									}
								}
							}
						}
					}
				}
				JOINT mixamorig:LeftShoulder
				{
					OFFSET 4.570447 11.014725 -2.160855
					CHANNELS 6 Xposition Yposition Zposition Xrotation Yrotation Zrotation
					JOINT mixamorig:LeftArm
					{
						OFFSET 10.592371 -0.524597 -2.232119
						CHANNELS 6 Xposition Yposition Zposition Xrotation Yrotation Zrotation
						JOINT mixamorig:LeftForeArm
						{
							OFFSET 27.841532 -0.000031 0.000026
							CHANNELS 6 Xposition Yposition Zposition Xrotation Yrotation Zrotation
							JOINT mixamorig:LeftHand
							{
								OFFSET 28.328846 -0.000061 0.000022
								CHANNELS 6 Xposition Yposition Zposition Xrotation Yrotation Zrotation
								JOINT mixamorig:LeftHandThumb1
								{
									OFFSET 2.466141 -1.576172 2.681732
									CHANNELS 6 Xposition Yposition Zposition Xrotation Yrotation Zrotation
									JOINT mixamorig:LeftHandThumb2
									{
										OFFSET 3.217812 -1.872070 1.916482
										CHANNELS 6 Xposition Yposition Zposition Xrotation Yrotation Zrotation
										JOINT mixamorig:LeftHandThumb3
										{
											OFFSET 2.656029 -1.528778 1.514513
											CHANNELS 6 Xposition Yposition Zposition Xrotation Yrotation Zrotation
											JOINT mixamorig:LeftHandThumb4
											{
												OFFSET 2.020889 -1.154053 1.115139
												CHANNELS 6 Xposition Yposition Zposition Xrotation Yrotation Zrotation
												End Site
												{
													OFFSET 190.885437 -115.081749 130.048782
												}
											}
										}
									}
								}
								JOINT mixamorig:LeftHandIndex1
								{
									OFFSET 9.109314 -0.518021 2.259871
									CHANNELS 6 Xposition Yposition Zposition Xrotation Yrotation Zrotation
									JOINT mixamorig:LeftHandIndex2
									{
										OFFSET 3.699989 0.000000 -0.000322
										CHANNELS 6 Xposition Yposition Zposition Xrotation Yrotation Zrotation
										JOINT mixamorig:LeftHandIndex3
										{
											OFFSET 2.850006 0.000000 0.000352
											CHANNELS 6 Xposition Yposition Zposition Xrotation Yrotation Zrotation
											JOINT mixamorig:LeftHandIndex4
											{
												OFFSET 2.774864 -0.000031 -0.000027
												CHANNELS 6 Xposition Yposition Zposition Xrotation Yrotation Zrotation
												End Site
												{
													OFFSET 277.486267 0.000000 -0.009857
												}
											}
										}
									}
								}
								JOINT mixamorig:LeftHandMiddle1
								{
									OFFSET 9.533394 0.000061 0.000044
									CHANNELS 6 Xposition Yposition Zposition Xrotation Yrotation Zrotation
									JOINT mixamorig:LeftHandMiddle2
									{
										OFFSET 3.699989 -0.000015 -0.000231
										CHANNELS 6 Xposition Yposition Zposition Xrotation Yrotation Zrotation
										JOINT mixamorig:LeftHandMiddle3
										{
											OFFSET 2.949997 -0.000015 -0.000059
											CHANNELS 6 Xposition Yposition Zposition Xrotation Yrotation Zrotation
											JOINT mixamorig:LeftHandMiddle4
											{
												OFFSET 2.952896 0.000031 0.000063
												CHANNELS 6 Xposition Yposition Zposition Xrotation Yrotation Zrotation
												End Site
												{
													OFFSET 295.289337 0.000000 0.022810
												}
											}
										}
									}
								}
								JOINT mixamorig:LeftHandRing1
								{
									OFFSET 9.104523 -0.042999 -1.865074
									CHANNELS 6 Xposition Yposition Zposition Xrotation Yrotation Zrotation
									JOINT mixamorig:LeftHandRing2
									{
										OFFSET 3.150009 -0.000031 0.000043
										CHANNELS 6 Xposition Yposition Zposition Xrotation Yrotation Zrotation
										JOINT mixamorig:LeftHandRing3
										{
											OFFSET 2.949982 -0.000015 0.000040
											CHANNELS 6 Xposition Yposition Zposition Xrotation Yrotation Zrotation
											JOINT mixamorig:LeftHandRing4
											{
												OFFSET 2.644348 0.000000 0.000057
												CHANNELS 6 Xposition Yposition Zposition Xrotation Yrotation Zrotation
												End Site
												{
													OFFSET 264.434631 0.000000 0.012105
												}
											}
										}
									}
								}
								JOINT mixamorig:LeftHandPinky1
								{
									OFFSET 8.077789 -0.486847 -3.806259
									CHANNELS 6 Xposition Yposition Zposition Xrotation Yrotation Zrotation
									JOINT mixamorig:LeftHandPinky2
									{
										OFFSET 3.599953 0.000031 0.014727
										CHANNELS 6 Xposition Yposition Zposition Xrotation Yrotation Zrotation
										JOINT mixamorig:LeftHandPinky3
										{
											OFFSET 2.100021 0.000015 0.007705
											CHANNELS 6 Xposition Yposition Zposition Xrotation Yrotation Zrotation
											JOINT mixamorig:LeftHandPinky4
											{
												OFFSET 2.125504 0.000031 0.007517
												CHANNELS 6 Xposition Yposition Zposition Xrotation Yrotation Zrotation
												End Site
												{
													OFFSET 212.550781 0.000000 0.625752
												}
											}
										}
									}
								}
							}
						}
					}
				}
			}
		}
	}
	JOINT mixamorig:RightUpLeg
	{
		OFFSET -8.207787 -6.751648 -1.599560
		CHANNELS 6 Xposition Yposition Zposition Xrotation Yrotation Zrotation
		JOINT mixamorig:RightLeg
		{
			OFFSET -0.000002 -44.370117 0.345942
			CHANNELS 6 Xposition Yposition Zposition Xrotation Yrotation Zrotation
			JOINT mixamorig:RightFoot
			{
				OFFSET 0.000003 -44.423679 -3.043532
				CHANNELS 6 Xposition Yposition Zposition Xrotation Yrotation Zrotation
				JOINT mixamorig:RightToeBase
				{
					OFFSET -0.000002 -8.728671 10.710558
					CHANNELS 6 Xposition Yposition Zposition Xrotation Yrotation Zrotation
					JOINT mixamorig:RightToe_End
					{
						OFFSET -0.000001 -0.000679 9.278119
						CHANNELS 6 Xposition Yposition Zposition Xrotation Yrotation Zrotation
						End Site
						{
							OFFSET 0.000000 -0.067690 927.812134
						}
					}
				}
			}
		}
	}
	JOINT mixamorig:LeftUpLeg
	{
		OFFSET 8.207793 -6.751686 -1.599556
		CHANNELS 6 Xposition Yposition Zposition Xrotation Yrotation Zrotation
		JOINT mixamorig:LeftLeg
		{
			OFFSET -0.000004 -44.370014 0.346954
			CHANNELS 6 Xposition Yposition Zposition Xrotation Yrotation Zrotation
			JOINT mixamorig:LeftFoot
			{
				OFFSET -0.000001 -44.423672 -3.044401
				CHANNELS 6 Xposition Yposition Zposition Xrotation Yrotation Zrotation
				JOINT mixamorig:LeftToeBase
				{
					OFFSET -0.000002 -8.728669 10.710558
					CHANNELS 6 Xposition Yposition Zposition Xrotation Yrotation Zrotation
					JOINT mixamorig:LeftToe_End
					{
						OFFSET -0.000003 -0.000679 9.278133
						CHANNELS 6 Xposition Yposition Zposition Xrotation Yrotation Zrotation
						End Site
						{
							OFFSET 0.000000 -0.068021 927.813477
						}
					}
				}
			}
		}
	}
}
MOTION
Frames: 3
Frame Time: 0.033333
0.000006 104.270477 1.554256 0.000010 0.000003 -0.000113 -0.000005 10.181587 0.131522 0.000001 -0.000003 0.000084 -0.000000 9.893967 -1.470711 0.000001 0.000000 -0.000000 -0.000000 9.220802 -1.370642 0.000000 -0.000000 -0.000000 0.000001 16.740433 -2.049030 0.000000 -0.000000 -0.000000 0.000000 9.617859 1.685014 0.000000 0.000000 0.000000 0.000002 22.037384 7.501101 0.000000 -0.000000 0.000000 -4.569968 11.014880 -2.160881 0.000008 0.000001 -0.000038 -10.592880 -0.524739 -2.231940 73.663536 22.817826 -17.189078 -27.841522 0.000009 0.000548 -46.463328 107.212127 60.429224 -28.328825 0.000006 0.000027 -0.000321 -0.000043 0.000008 -2.464421 -1.573960 2.682371 -26.353986 -144.860690 28.492595 -3.215225 -1.872496 1.924609 147.306772 34.523116 37.778350 -2.654942 -1.527860 1.513078 149.092716 26.940337 -33.255266 -2.018823 -1.151998 1.108058 -0.000002 0.000000 0.000004 -9.108387 -0.517584 2.260208 115.361717 15.930723 -25.016391 -3.700068 0.000302 0.001596 111.066492 12.256296 -17.745682 -2.850089 0.000367 -0.000188 109.734058 9.821921 -13.922160 -2.772179 -0.000015 -0.000021 -0.000000 -0.000004 0.000000 -9.532602 0.000259 0.000329 111.778368 16.218354 -23.968739 -3.700053 0.000338 0.004048 111.216257 10.769993 -15.545444 -2.950049 0.000329 -0.001733 111.807055 9.960281 -14.659404 -2.946626 0.000015 -0.000154 0.000000 0.000002 0.000000 -9.103703 -0.042771 -1.864788 111.057025 18.198194 -26.197228 -3.379332 0.000313 -0.000698 113.706005 9.686528 -14.812010 -2.889741 0.000333 0.000748 118.803832 7.654779 -12.987331 -2.638817 -0.000014 0.000940 -0.000001 -0.000001 0.000000 -8.076788 -0.486438 -3.805971 97.997840 24.312946 -27.653365 -3.600066 0.000271 -0.003431 104.139321 13.235061 -16.453461 -2.100045 0.000290 -0.005388 110.636859 7.901300 -11.071398 -2.115758 -0.000065 -0.003675 0.000000 -0.000001 -0.000004 4.570446 11.014691 -2.160851 -0.000018 0.000010 -0.000021 10.592516 -0.524530 -2.232394 66.479802 -62.898201 43.683417 27.841738 -0.000060 -0.000102 60.434169 -105.519073 74.917067 28.328842 -0.000027 0.000029 0.000025 -0.000088 -0.000001 2.466132 -1.576163 2.681884 89.880973 125.325994 -138.005270 3.217702 -1.872045 1.916556 190.477952 54.881885 115.765327 2.655762 -1.528780 1.514640 -39.024535 154.357098 -0.567063 2.020890 -1.154074 1.115152 -0.000001 0.000003 0.000006 9.109050 -0.517861 2.259963 -173.340939 -11.268879 -118.977401 3.699744 0.000261 -0.000205 -168.142318 -10.703614 -84.111758 2.849799 0.000363 0.000455 -169.374225 -5.747971 -56.720480 2.774900 -0.000062 -0.000024 -0.000000 -0.000000 0.000001 9.533117 0.000312 0.000147 189.989539 -10.332596 268.053479 3.699765 0.000336 -0.000112 192.177344 -7.947515 293.857551 2.949891 0.000395 0.000055 191.559923 -3.550110 325.939578 2.952862 -0.000029 0.000060 -0.000001 -0.000000 0.000001 9.104674 -0.042805 -1.865069 158.185583 -13.831666 64.385646 3.150014 0.000045 -0.000046 -339.204434 6.152186 -1.129746 2.949969 0.000006 0.000010 -5.297563 17.390886 360.810480 2.644314 0.000032 0.000053 0.000001 -0.000001 -0.000002 8.077890 -0.486546 -3.806258 158.764715 -7.115666 39.762182 3.599932 0.000006 0.014664 -353.938108 31.227826 -1.792864 2.099982 -0.000005 0.007705 -194.182319 152.398350 -176.647775 2.125504 -0.000002 0.007512 -0.000001 0.000002 -0.000000 -8.207786 -6.751667 -1.599560 -0.077001 -0.000003 0.000080 -0.000002 -44.370110 0.345938 0.153719 -0.000000 -0.000000 0.000000 -44.423679 -3.043532 -0.076700 0.000000 -0.000002 -0.000006 -8.728667 10.710559 -0.000009 -0.000000 -0.000000 -0.000001 -0.000679 9.278123 0.000000 -0.000000 -0.000000 8.207792 -6.751710 -1.599556 -0.074518 -0.000003 0.000081 -0.000002 -44.370014 0.346960 0.148822 0.000002 0.000000 -0.000001 -44.423664 -3.044403 -0.074314 0.000000 -0.000002 -0.000004 -8.728671 10.710558 0.000007 -0.000000 -0.000000 0.000000 -0.000680 9.278137 -0.000000 0.000000 -0.000001 
0.000006 104.270477 1.554256 0.000010 0.000003 -0.000113 -0.000005 10.181587 0.131522 0.000001 -0.000003 0.000084 -0.000000 9.893967 -1.470711 0.000001 0.000000 -0.000000 -0.000000 9.220802 -1.370642 0.000000 -0.000000 -0.000000 0.000001 16.740433 -2.049030 0.000000 -0.000000 -0.000000 0.000000 9.617859 1.685014 0.000000 0.000000 0.000000 0.000002 22.037384 7.501101 0.000000 -0.000000 0.000000 -4.569968 11.014880 -2.160881 0.000008 0.000001 -0.000038 -10.592879 -0.524741 -2.231937 73.719809 23.329659 -17.596994 -27.841513 0.000010 0.000570 -46.524619 107.134379 60.431929 -28.328823 0.000020 0.000027 -0.000321 -0.000047 0.000008 -2.464400 -1.573959 2.682351 -26.414020 -144.446343 28.161025 -3.215219 -1.872459 1.924616 145.332779 34.205779 42.074867 -2.654947 -1.527894 1.513065 148.910746 27.202777 -31.133874 -2.018842 -1.152013 1.108066 -0.000002 -0.000001 0.000002 -9.108366 -0.517576 2.260202 114.833826 15.483040 -24.088658 -3.700075 0.000319 0.001580 111.190275 11.827596 -17.168037 -2.850099 0.000360 -0.000185 110.359799 9.682610 -13.884566 -2.772183 -0.000017 -0.000017 0.000002 0.000001 -0.000001 -9.532578 0.000247 0.000312 111.563395 15.698575 -23.126460 -3.700061 0.000325 0.004050 111.287332 10.381237 -15.003240 -2.950035 0.000339 -0.001699 112.056999 9.972219 -14.745299 -2.946630 0.000001 -0.000155 0.000001 0.000001 -0.000001 -9.103699 -0.042777 -1.864781 110.517877 17.809980 -25.398632 -3.379333 0.000295 -0.000722 114.185361 9.345505 -14.424588 -2.889759 0.000331 0.000758 119.557393 7.706799 -13.271384 -2.638821 0.000000 0.000939 0.000000 -0.000002 0.000002 -8.076768 -0.486412 -3.805959 97.534726 24.068668 -27.162445 -3.600070 0.000263 -0.003436 104.148056 12.932485 -16.072396 -2.100047 0.000291 -0.005377 111.041787 7.987385 -11.279118 -2.115757 -0.000026 -0.003681 0.000001 -0.000000 -0.000005 4.570446 11.014691 -2.160851 -0.000018 0.000010 -0.000021 10.592516 -0.524540 -2.232391 66.242603 -63.410718 43.901765 27.841742 -0.000091 -0.000096 58.186812 -105.687233 72.575684 28.328836 -0.000028 0.000030 0.000019 -0.000088 0.000001 2.466141 -1.576194 2.681853 95.210153 126.599701 -142.228212 3.217735 -1.872085 1.916534 197.561637 54.910654 107.758863 2.655795 -1.528809 1.514653 -33.992100 151.159955 -10.124928 2.020890 -1.154048 1.115149 0.000001 0.000003 0.000006 9.109079 -0.517732 2.259998 -162.946320 -12.035347 -70.210226 3.699817 0.000328 -0.000178 -159.259097 -10.641103 -53.971431 2.849893 0.000383 0.000482 -162.182309 -5.494033 -34.033596 2.774859 -0.000014 -0.000041 -0.000001 0.000001 -0.000004 9.533167 0.000365 0.000160 195.402191 -10.461049 291.816608 3.699817 0.000348 -0.000105 195.420414 -7.867564 306.152247 2.949889 0.000365 0.000050 192.979318 -3.850089 327.063936 2.952863 -0.000014 0.000049 -0.000001 0.000000 -0.000002 9.104679 -0.042871 -1.865064 164.332316 -12.901725 78.838947 3.150001 0.000030 -0.000056 -339.051820 9.311225 -1.724895 2.949948 0.000006 -0.000019 -0.776745 18.043577 360.123090 2.644324 0.000014 0.000052 -0.000000 0.000002 0.000001 8.077916 -0.486565 -3.806262 162.656406 -5.894252 41.076764 3.599917 0.000007 0.014637 -353.010923 33.844468 -2.233901 2.099979 -0.000005 0.007678 -191.709941 150.598035 -177.063789 2.125510 -0.000013 0.007529 -0.000001 -0.000001 0.000000 -8.207786 -6.751667 -1.599560 -0.077001 -0.000003 0.000080 -0.000002 -44.370110 0.345938 0.153719 -0.000000 -0.000000 0.000000 -44.423679 -3.043532 -0.076700 0.000000 -0.000002 -0.000006 -8.728667 10.710559 -0.000009 -0.000000 -0.000000 -0.000001 -0.000679 9.278123 0.000000 -0.000000 -0.000000 8.207792 -6.751710 -1.599556 -0.074518 -0.000003 0.000081 -0.000002 -44.370014 0.346960 0.148822 0.000002 0.000000 -0.000001 -44.423664 -3.044403 -0.074314 0.000000 -0.000002 -0.000004 -8.728671 10.710558 0.000007 -0.000000 -0.000000 0.000000 -0.000680 9.278137 -0.000000 0.000000 -0.000001 
0.000006 104.270477 1.554256 0.000010 0.000003 -0.000113 -0.000005 10.181587 0.131522 0.000001 -0.000003 0.000084 -0.000000 9.893967 -1.470711 0.000001 0.000000 -0.000000 -0.000000 9.220802 -1.370642 0.000000 -0.000000 -0.000000 0.000001 16.740433 -2.049030 0.000000 -0.000000 -0.000000 0.000000 9.617859 1.685014 0.000000 0.000000 0.000000 0.000002 22.037384 7.501101 0.000000 -0.000000 0.000000 -4.569968 11.014880 -2.160881 0.000008 0.000001 -0.000038 -10.592878 -0.524732 -2.231939 73.686594 22.336648 -16.829492 -27.841511 0.000014 0.000530 -46.605359 107.215576 60.602725 -28.328821 0.000006 0.000025 -0.000319 -0.000045 0.000007 -2.464430 -1.573958 2.682348 -26.308384 -145.025407 28.662674 -3.215209 -1.872502 1.924610 146.823358 34.376311 38.150302 -2.654955 -1.527860 1.513063 149.042897 27.083440 -32.036954 -2.018818 -1.151996 1.108073 -0.000003 -0.000004 -0.000001 -9.108398 -0.517567 2.260199 114.507145 15.767476 -24.373441 -3.700053 0.000311 0.001578 111.124179 12.041337 -17.455016 -2.850097 0.000373 -0.000195 110.282884 9.815456 -14.054176 -2.772166 0.000001 -0.000019 -0.000001 0.000000 -0.000002 -9.532618 0.000249 0.000326 111.099748 15.955848 -23.299216 -3.700065 0.000322 0.004049 111.206210 10.548309 -15.222231 -2.950047 0.000334 -0.001731 111.975269 10.147985 -14.980953 -2.946616 -0.000015 -0.000153 0.000000 0.000001 -0.000000 -9.103712 -0.042780 -1.864805 109.866284 17.972123 -25.327842 -3.379336 0.000317 -0.000703 114.152187 9.329307 -14.390722 -2.889747 0.000329 0.000748 119.633782 7.690969 -13.264587 -2.638817 -0.000013 0.000937 -0.000003 -0.000003 -0.000003 -8.076785 -0.486409 -3.805963 97.431754 23.968797 -27.002888 -3.600062 0.000260 -0.003444 103.373124 12.879366 -15.786790 -2.100026 0.000288 -0.005394 110.167270 8.065914 -11.209654 -2.115781 -0.000053 -0.003675 0.000000 -0.000001 -0.000004 4.570446 11.014691 -2.160851 -0.000018 0.000010 -0.000021 10.592517 -0.524529 -2.232393 66.356633 -63.398977 43.979062 27.841742 -0.000062 -0.000099 58.145086 -106.014610 72.853728 28.328838 -0.000027 0.000017 0.000021 -0.000089 0.000000 2.466130 -1.576167 2.681854 94.630386 125.959958 -141.632018 3.217740 -1.872064 1.916536 199.867523 56.684320 106.410516 2.655806 -1.528819 1.514634 -30.335783 146.478598 -15.421514 2.020894 -1.154064 1.115147 0.000004 0.000004 0.000008 9.109093 -0.517705 2.259999 -163.506505 -10.940476 -66.893705 3.699807 0.000350 -0.000187 -160.087695 -9.403210 -50.241734 2.849880 0.000388 0.000477 -164.326210 -4.905176 -34.566348 2.774892 -0.000027 -0.000029 -0.000001 -0.000001 -0.000005 9.533178 0.000368 0.000159 196.426856 -10.742958 293.849983 3.699827 0.000340 -0.000105 197.772185 -8.290355 310.266561 2.949911 0.000387 0.000065 196.673371 -3.993396 333.222964 2.952873 -0.000014 0.000070 0.000002 -0.000002 -0.000003 9.104674 -0.042850 -1.865073 163.780956 -13.486520 79.383546 3.150002 0.000039 -0.000067 -335.536923 6.790435 -1.473467 2.949960 -0.000011 -0.000005 -1.459439 17.035238 360.218358 2.644319 0.000018 0.000069 0.000001 -0.000003 -0.000000 8.077912 -0.486534 -3.806256 161.318481 -6.500317 41.592027 3.599908 0.000012 0.014628 -347.737853 31.546332 -3.554274 2.099986 0.000005 0.007701 -191.758230 151.626170 -177.160272 2.125519 -0.000018 0.007526 0.000000 -0.000002 0.000000 -8.207786 -6.751667 -1.599560 -0.077001 -0.000003 0.000080 -0.000002 -44.370110 0.345938 0.153719 -0.000000 -0.000000 0.000000 -44.423679 -3.043532 -0.076700 0.000000 -0.000002 -0.000006 -8.728667 10.710559 -0.000009 -0.000000 -0.000000 -0.000001 -0.000679 9.278123 0.000000 -0.000000 -0.000000 8.207792 -6.751710 -1.599556 -0.074518 -0.000003 0.000081 -0.000002 -44.370014 0.346960 0.148822 0.000002 0.000000 -0.000001 -44.423664 -3.044403 -0.074314 0.000000 -0.000002 -0.000004 -8.728671 10.710558 0.000007 -0.000000 -0.000000 0.000000 -0.000680 9.278137 -0.000000 0.000000 -0.000001 
